<svg xmlns="http://www.w3.org/2000/svg" viewBox="0 0 520 430" fill="none"><defs><linearGradient id="a" x1="80" y1="30" x2="450" y2="380" gradientUnits="userSpaceOnUse"><stop stop-color="#fff" stop-opacity=".28"/><stop offset="1" stop-color="#8BE4C5" stop-opacity=".02"/></linearGradient><filter id="s"><feGaussianBlur stdDeviation="18"/></filter></defs><circle cx="350" cy="210" r="150" fill="#72DAB6" fill-opacity=".10" filter="url(#s)"/><path d="M292 86c67 0 122 54 122 121s-55 121-122 121-122-54-122-121S225 86 292 86Z" fill="url(#a)" stroke="#B9F3DD" stroke-opacity=".25"/><rect x="194" y="142" width="195" height="145" rx="25" fill="#fff" fill-opacity=".09" stroke="#D5F8EA" stroke-opacity=".32"/><path d="M220 177h143M220 211h143M220 245h105" stroke="#D5F8EA" stroke-opacity=".55" stroke-width="9" stroke-linecap="round"/><circle cx="354" cy="245" r="15" fill="#E9AD54"/><path d="M105 319c68-35 109-19 149 4 45 25 86 28 162-7" stroke="#8BE4C5" stroke-opacity=".28" stroke-width="4" stroke-linecap="round"/><circle cx="108" cy="319" r="8" fill="#E9AD54"/><circle cx="416" cy="316" r="8" fill="#8BE4C5"/><path d="M62 354h394" stroke="#D5F8EA" stroke-opacity=".12" stroke-width="2"/></svg>